<svg preserveAspectRatio="xMidYMid meet" viewBox="210.94400000000002 0 1097.728 1024" xmlns="http://www.w3.org/2000/svg" version="1.0" style="max-height: 500px" width="1097.728" height="1024">

<g stroke="none" fill="#000000" transform="translate(0.000000,1024.000000) scale(0.100000,-0.100000)">
<path d="M5291 8310 c-704 -59 -1358 -350 -1871 -834 -547 -516 -878 -1187&#xA;-966 -1961 -23 -205 -15 -641 15 -826 57 -353 143 -628 291 -934 164 -337 352&#xA;-598 621 -860 516 -504 1124 -789 1846 -866 148 -15 590 -6 732 15 261 40 575&#xA;131 810 235 181 80 455 239 569 329 l23 18 -53 44 c-59 50 -748 646 -834 722&#xA;-20 18 -23 17 -115 -26 -125 -60 -276 -109 -434 -142 -121 -26 -147 -28 -380&#xA;-28 -223 -1 -262 1 -365 22 -683 139 -1241 633 -1468 1302 -77 226 -106 400&#xA;-106 645 -1 561 212 1062 612 1447 295 283 642 455 1047 519 122 20 448 17&#xA;570 -5 215 -38 395 -95 556 -177 l60 -30 112 98 c171 151 486 425 645 561 78&#xA;68 142 126 142 131 0 10 -224 157 -337 221 -258 145 -608 271 -928 334 -223&#xA;44 -577 64 -794 46z"/>
<path d="M9570 8313 c-699 -39 -1387 -317 -2030 -820 -120 -93 -157 -124 -365&#xA;-303 -49 -42 -205 -176 -345 -296 -140 -120 -309 -266 -376 -324 -213 -186&#xA;-395 -344 -554 -480 -85 -74 -202 -175 -260 -225 -58 -50 -217 -189 -355 -309&#xA;-413 -359 -435 -379 -435 -387 0 -11 535 -478 1660 -1449 162 -140 419 -362&#xA;570 -494 374 -324 503 -427 720 -571 423 -280 773 -438 1218 -550 287 -72 461&#xA;-89 820 -82 293 5 434 22 662 77 330 81 589 187 876 360 612 369 1099 962&#xA;1335 1623 l39 107 -649 0 -649 0 -77 -117 c-196 -298 -432 -512 -743 -671&#xA;-556 -286 -1211 -281 -1794 12 -294 148 -466 276 -1022 761 -161 141 -571 493&#xA;-741 637 -231 196 -399 344 -402 354 -5 14 1352 1179 1652 1419 539 431 1093&#xA;617 1640 550 629 -77 1160 -433 1474 -987 l32 -58 640 0 c351 0 639 1 639 3 0&#xA;13 -85 249 -114 315 -357 826 -1030 1451 -1876 1743 -361 125 -795 184 -1190&#xA;162z"/>
<path d="M8765 6602 c-54 -34 -227 -164 -295 -222 -30 -25 -111 -93 -180 -149&#xA;-271 -224 -410 -342 -410 -350 0 -4 105 -102 233 -218 387 -350 470 -424 509&#xA;-459 l37 -33 -67 -64 c-37 -35 -182 -168 -322 -295 -140 -126 -286 -260 -325&#xA;-296 l-70 -66 41 -37 c23 -21 147 -130 275 -242 246 -214 382 -323 513 -411&#xA;73 -49 81 -52 102 -39 12 8 96 80 186 160 89 80 219 194 288 254 256 224 435&#xA;379 785 685 198 173 368 322 379 331 18 15 8 25 -205 213 -225 200 -306 270&#xA;-564 496 -228 199 -343 300 -439 385 -50 45 -154 137 -231 205 -77 68 -153&#xA;136 -170 151 l-30 27 -40 -26z"/>
</g>
</svg>