<?xml version="1.0" standalone="no"?>
<!DOCTYPE svg PUBLIC "-//W3C//DTD SVG 20010904//EN"
 "http://www.w3.org/TR/2001/REC-SVG-20010904/DTD/svg10.dtd">
<svg version="1.0" xmlns="http://www.w3.org/2000/svg"
 width="512.000000pt" height="512.000000pt" viewBox="0 0 512.000000 512.000000"
 preserveAspectRatio="xMidYMid meet">

<g transform="translate(0.000000,512.000000) scale(0.100000,-0.100000)"
fill="#000000" stroke="none">
<path d="M1825 4544 c-67 -35 -95 -79 -95 -152 0 -57 27 -104 79 -139 30 -20
46 -23 142 -23 l109 0 0 -521 0 -521 -664 -1046 c-365 -576 -673 -1065 -684
-1087 -118 -234 -23 -439 222 -484 84 -15 3168 -15 3252 0 208 38 314 199 258
390 -9 30 -25 72 -37 94 -11 22 -318 511 -683 1087 l-664 1046 0 521 0 521
109 0 c96 0 112 3 142 23 58 39 81 83 77 148 -5 67 -33 111 -88 139 -38 19
-62 20 -742 20 -618 0 -707 -2 -733 -16z m905 -894 l5 -575 368 -579 c203
-318 371 -585 374 -592 4 -12 -139 -14 -917 -14 -785 0 -921 2 -917 14 3 8
172 277 376 598 l371 585 0 565 c0 310 3 568 7 572 4 3 79 5 167 4 l161 -3 5
-575z"/>
</g>
</svg>
